<?xml version="1.0" standalone="no"?>
<!DOCTYPE svg PUBLIC "-//W3C//DTD SVG 20010904//EN"
 "http://www.w3.org/TR/2001/REC-SVG-20010904/DTD/svg10.dtd">
<svg version="1.0" xmlns="http://www.w3.org/2000/svg"
 width="208.000000pt" height="45.000000pt" viewBox="0 0 208.000000 45.000000"
 preserveAspectRatio="xMidYMid meet">

<g transform="translate(0.000000,45.000000) scale(0.100000,-0.100000)"
fill="#000000" stroke="none">
<path d="M250 285 c0 -98 1 -105 20 -105 19 0 20 7 20 105 0 98 -1 105 -20
105 -19 0 -20 -7 -20 -105z"/>
<path d="M1358 364 c-5 -4 -8 -45 -8 -91 0 -76 2 -83 20 -83 15 0 20 7 20 25
0 21 5 25 30 25 56 0 89 61 57 104 -14 20 -105 35 -119 20z m91 -42 c13 -25
-5 -52 -34 -52 -22 0 -25 5 -25 35 0 31 3 35 25 35 13 0 29 -8 34 -18z"/>
<path d="M970 347 c-49 -25 -26 -97 31 -97 9 0 22 -7 29 -15 10 -12 9 -16 -5
-21 -10 -4 -26 -2 -36 4 -22 14 -49 16 -49 4 0 -20 39 -42 72 -42 41 0 71 28
66 61 -2 17 -15 28 -48 40 -24 9 -46 21 -48 28 -4 13 40 15 54 1 5 -5 15 -6
24 0 13 8 13 11 0 24 -22 22 -62 28 -90 13z"/>
<path d="M1192 348 c-26 -13 -39 -52 -23 -72 6 -7 29 -18 51 -25 22 -6 40 -16
40 -22 0 -17 -31 -22 -56 -9 -28 16 -43 6 -28 -18 15 -24 86 -28 108 -7 19 19
21 60 4 72 -7 4 -28 13 -47 18 -41 12 -53 35 -19 35 13 0 28 -4 34 -10 5 -5
15 -6 24 0 13 8 13 11 0 24 -21 21 -61 27 -88 14z"/>
<path d="M310 265 c0 -78 2 -85 20 -85 17 0 20 7 20 53 0 60 17 92 43 81 14
-5 17 -19 17 -70 0 -57 2 -64 20 -64 18 0 20 7 20 73 0 80 -9 97 -50 97 -14 0
-31 -5 -38 -12 -9 -9 -12 -9 -12 0 0 7 -9 12 -20 12 -18 0 -20 -7 -20 -85z"/>
<path d="M464 333 c3 -10 21 -61 40 -113 39 -108 32 -110 81 30 l22 65 71 3
c55 2 72 6 72 17 0 12 -17 15 -84 15 l-84 0 -18 -47 c-9 -27 -20 -51 -24 -56
-3 -4 -14 18 -24 48 -13 43 -22 55 -37 55 -15 0 -19 -5 -15 -17z"/>
<path d="M778 283 l-3 -68 -87 -3 c-64 -2 -88 -6 -92 -17 -4 -13 13 -15 109
-15 l115 0 0 59 c0 61 16 89 45 77 11 -4 15 -22 15 -71 0 -58 2 -65 20 -65 18
0 20 7 20 66 0 36 -5 74 -10 85 -12 22 -59 26 -78 7 -9 -9 -12 -9 -12 0 0 7
-9 12 -20 12 -17 0 -19 -8 -22 -67z"/>
<path d="M1100 265 c0 -78 2 -85 20 -85 18 0 20 7 20 85 0 78 -2 85 -20 85
-18 0 -20 -7 -20 -85z"/>
<path d="M1533 323 c-25 -10 -13 -28 19 -28 17 0 33 -6 35 -12 3 -9 -6 -13
-25 -13 -35 0 -55 -20 -50 -52 3 -20 9 -23 56 -25 l52 -1 0 53 c0 44 -4 57
-22 69 -23 16 -42 19 -65 9z m55 -90 c-2 -10 -12 -18 -23 -18 -11 0 -21 8 -23
18 -3 13 3 17 23 17 20 0 26 -4 23 -17z"/>
<path d="M1640 326 c0 -2 11 -34 25 -70 27 -71 26 -86 -6 -86 -10 0 -19 -7
-19 -15 0 -24 47 -18 64 8 12 19 66 152 66 163 0 2 -6 4 -14 4 -8 0 -20 -17
-26 -37 -19 -57 -26 -59 -45 -9 -10 25 -24 46 -31 46 -8 0 -14 -2 -14 -4z"/>
<path d="M637 274 c-18 -18 -3 -25 48 -22 30 2 56 8 58 13 2 11 -95 20 -106 9z"/>
</g>
</svg>
