<?xml version="1.0" standalone="no"?>
<!DOCTYPE svg PUBLIC "-//W3C//DTD SVG 20010904//EN"
 "http://www.w3.org/TR/2001/REC-SVG-20010904/DTD/svg10.dtd">
<svg version="1.0" xmlns="http://www.w3.org/2000/svg"
 width="455.000000pt" height="111.000000pt" viewBox="0 0 455.000000 111.000000"
 preserveAspectRatio="xMidYMid meet">

<g transform="translate(0.000000,111.000000) scale(0.100000,-0.100000)"
fill="#000000" stroke="none">
<path d="M50 711 l0 -390 85 -3 85 -3 0 393 0 392 -85 0 -85 0 0 -389z"/>
<path d="M3043 946 c-70 -17 -131 -59 -149 -101 -22 -53 -18 -126 9 -165 30
-45 70 -64 217 -100 132 -34 160 -49 160 -86 0 -28 -36 -49 -102 -59 -62 -9
-135 21 -151 64 -11 31 -17 32 -114 12 l-31 -6 13 -39 c18 -52 66 -100 129
-127 73 -33 219 -33 291 -1 116 53 164 154 121 256 -20 48 -68 73 -197 101
-170 38 -221 65 -198 107 11 19 68 38 117 38 40 0 85 -22 106 -51 14 -21 17
-21 87 -8 40 8 74 19 76 25 6 17 -39 76 -76 101 -19 13 -50 27 -70 33 -61 18
-182 21 -238 6z"/>
<path d="M3967 949 c-166 -39 -232 -190 -127 -290 32 -30 56 -41 156 -68 66
-18 134 -37 152 -42 73 -24 59 -89 -23 -107 -77 -17 -159 14 -171 64 -5 21
-11 24 -33 20 -14 -3 -47 -8 -73 -11 -59 -8 -61 -23 -15 -91 23 -35 48 -57 87
-77 131 -66 340 -35 409 62 30 42 44 116 30 160 -23 73 -66 97 -224 131 -166
35 -222 75 -162 114 59 39 155 31 198 -15 l27 -29 71 11 c81 14 86 22 46 81
-51 75 -219 117 -348 87z"/>
<path d="M900 939 c0 -4 9 -29 21 -56 11 -26 81 -196 156 -378 74 -181 140
-340 147 -353 l12 -23 13 28 c7 15 39 93 72 173 32 80 90 222 128 315 l69 170
292 3 291 2 -3 63 -3 62 -344 0 -345 0 -85 -212 c-47 -117 -88 -209 -92 -205
-3 4 -41 95 -83 202 -43 107 -81 198 -84 201 -10 10 -162 17 -162 8z"/>
<path d="M2220 700 l0 -250 -358 0 -359 0 -25 -65 -26 -65 464 0 464 0 0 183
c0 100 5 199 10 219 6 20 26 50 46 67 28 25 44 31 80 31 106 0 118 -28 122
-290 l2 -205 81 -3 80 -3 -3 254 -3 254 -28 36 c-41 55 -93 77 -174 77 -73 0
-121 -17 -183 -64 l-35 -27 -3 51 -3 50 -75 0 -74 0 0 -250z"/>
<path d="M3540 635 l0 -315 85 0 85 0 0 315 0 315 -85 0 -85 0 0 -315z"/>
<path d="M290 630 l0 -310 90 0 90 0 0 198 c0 179 2 200 20 230 45 73 127 92
182 43 l33 -29 3 -221 3 -221 85 0 84 0 0 228 c0 134 -5 243 -11 267 -23 81
-97 125 -209 125 -68 -1 -117 -18 -169 -59 l-41 -33 0 46 0 46 -80 0 -80 0 0
-310z"/>
<path d="M1587 643 c-9 -27 -17 -51 -17 -55 0 -5 117 -8 260 -8 l260 0 0 55 0
55 -243 0 -243 0 -17 -47z"/>
<path d="M4387 432 c-37 -41 -6 -112 48 -112 32 0 65 33 65 65 0 55 -77 87
-113 47z m85 -9 c22 -20 23 -51 1 -75 -33 -36 -93 -13 -93 37 0 49 55 72 92
38z"/>
<path d="M4400 386 c0 -20 5 -36 10 -36 6 0 10 7 10 17 0 15 2 15 18 0 16 -15
17 -13 17 16 0 27 -4 32 -27 35 -26 3 -28 1 -28 -32z m50 14 c0 -5 -7 -10 -15
-10 -8 0 -15 5 -15 10 0 6 7 10 15 10 8 0 15 -4 15 -10z"/>
<path d="M1504 220 c-32 -13 -54 -50 -54 -92 0 -51 35 -75 88 -62 30 7 37 14
43 42 6 32 6 32 -30 31 -31 -2 -32 -3 -8 -6 21 -3 27 -9 23 -20 -3 -8 -6 -18
-6 -23 0 -17 -52 -21 -76 -5 -30 20 -32 63 -3 99 24 31 73 36 88 9 5 -10 13
-14 18 -10 9 10 -33 47 -51 46 -6 0 -21 -4 -32 -9z"/>
<path d="M3373 220 c-39 -16 -30 -56 17 -80 44 -22 51 -43 21 -60 -22 -11 -50
-4 -68 19 -11 14 -12 14 -13 -1 0 -38 64 -49 101 -19 30 24 19 47 -32 73 -43
23 -46 52 -4 56 19 3 33 -2 42 -14 7 -10 15 -15 19 -12 8 8 -33 48 -48 47 -7
0 -23 -4 -35 -9z"/>
<path d="M1640 153 c-7 -38 -15 -74 -18 -81 -2 -6 0 -12 6 -12 5 0 15 28 21
62 7 35 14 71 17 81 3 9 1 17 -3 17 -5 0 -15 -30 -23 -67z"/>
<path d="M1858 205 c-14 -41 -30 -137 -24 -142 3 -4 6 -1 6 7 0 10 3 10 15 0
33 -27 85 15 85 69 0 25 -25 45 -49 38 -16 -4 -21 1 -23 22 -3 23 -4 24 -10 6z
m60 -71 c3 -35 -21 -67 -47 -62 -22 4 -26 44 -6 74 22 34 49 28 53 -12z"/>
<path d="M2135 194 c-4 -16 -11 -45 -16 -64 -12 -46 -12 -81 0 -60 12 23 35
140 28 146 -3 4 -9 -7 -12 -22z"/>
<path d="M2275 183 c-4 -21 -11 -54 -16 -73 -13 -51 -14 -50 41 -50 28 0 50 5
50 10 0 6 -18 10 -40 10 -44 0 -42 -7 -25 75 3 17 8 38 11 48 3 9 1 17 -5 17
-5 0 -13 -17 -16 -37z"/>
<path d="M3870 209 c0 -5 5 -7 10 -4 6 3 10 8 10 11 0 2 -4 4 -10 4 -5 0 -10
-5 -10 -11z"/>
<path d="M1709 159 c-30 -30 -23 -81 15 -94 25 -8 31 -6 52 18 28 33 31 59 8
81 -21 22 -50 20 -75 -5z m69 -22 c4 -30 -21 -67 -44 -67 -19 0 -35 35 -27 57
18 52 66 59 71 10z"/>
<path d="M1994 164 c-19 -15 -19 -16 1 -8 36 12 59 10 63 -8 3 -14 -3 -18 -23
-18 -37 0 -65 -17 -65 -40 0 -20 24 -29 67 -27 18 1 24 9 29 44 3 24 4 50 0
58 -7 20 -47 19 -72 -1z m56 -57 c0 -19 -21 -37 -42 -37 -18 0 -25 29 -11 43
12 12 53 7 53 -6z"/>
<path d="M2417 168 c-25 -19 -32 -71 -12 -91 22 -23 48 -21 70 3 21 23 11 27
-12 5 -21 -21 -47 -15 -51 13 -3 20 1 22 42 22 47 0 54 7 36 41 -12 22 -48 25
-73 7z m61 -21 c3 -14 -4 -17 -32 -17 -39 0 -47 13 -18 29 24 15 46 9 50 -12z"/>
<path d="M2554 164 c-19 -15 -19 -16 1 -8 36 12 59 10 63 -8 3 -14 -3 -18 -23
-18 -37 0 -65 -17 -65 -39 0 -18 18 -31 43 -31 6 0 2 6 -8 14 -25 18 -13 46
20 46 26 0 33 -18 14 -37 -7 -7 -6 -12 4 -16 19 -7 40 86 23 103 -15 15 -49
12 -72 -6z"/>
<path d="M2725 170 c-3 -5 -12 -7 -19 -4 -10 4 -17 -9 -25 -46 -13 -61 -13
-63 -2 -56 4 3 11 24 15 46 5 31 11 41 31 46 14 3 25 10 25 15 0 12 -17 11
-25 -1z"/>
<path d="M2771 127 c-7 -32 -11 -61 -8 -64 5 -5 10 9 21 59 7 31 42 56 58 40
7 -7 7 -26 0 -56 -5 -25 -6 -46 -2 -46 5 0 13 21 19 48 12 59 -3 82 -43 64
-19 -8 -26 -8 -29 1 -2 7 -10 -14 -16 -46z"/>
<path d="M2911 127 c-7 -32 -10 -61 -8 -64 9 -8 29 76 25 100 -3 14 -9 -1 -17
-36z"/>
<path d="M2975 134 c-3 -25 -9 -53 -12 -60 -3 -8 -1 -14 4 -14 12 0 35 102 24
113 -5 5 -12 -12 -16 -39z"/>
<path d="M3020 170 c-12 -9 -12 -10 5 -8 18 3 20 -2 18 -52 -3 -66 15 -47 19
21 3 46 -12 60 -42 39z"/>
<path d="M3126 161 c-21 -23 -21 -77 0 -89 9 -5 26 -7 37 -4 16 4 19 2 14 -12
-4 -10 -7 -20 -7 -22 0 -10 -47 -3 -59 8 -11 11 -13 10 -9 -1 7 -25 45 -32 68
-13 16 13 47 102 50 142 0 3 -18 6 -39 7 -26 2 -44 -3 -55 -16z m62 -14 c2
-10 1 -30 -2 -43 -9 -35 -59 -31 -64 4 -7 46 58 83 66 39z"/>
<path d="M3510 160 c-22 -22 -27 -69 -8 -88 15 -15 51 -15 66 0 20 20 13 32
-8 13 -23 -21 -50 -13 -50 15 0 17 6 20 40 20 32 0 40 4 40 18 0 42 -47 55
-80 22z m54 4 c30 -12 18 -34 -19 -34 -37 0 -43 8 -23 28 14 14 20 14 42 6z"/>
<path d="M3647 167 c-3 -8 -8 -36 -11 -63 l-5 -49 15 49 c10 31 23 50 35 53
10 3 19 9 19 14 0 13 -17 11 -26 -2 -5 -8 -9 -8 -14 1 -5 9 -9 8 -13 -3z"/>
<path d="M3731 160 c-1 -38 11 -100 19 -100 8 0 70 94 70 106 0 14 -23 -12
-42 -49 l-22 -42 -12 55 c-6 30 -12 44 -13 30z"/>
<path d="M3856 143 c-3 -21 -9 -48 -12 -60 -4 -13 -2 -23 4 -23 5 0 12 17 16
38 3 20 9 47 12 60 4 12 2 22 -4 22 -5 0 -12 -17 -16 -37z"/>
<path d="M3926 158 c-44 -62 10 -132 59 -78 10 11 13 20 7 20 -6 0 -14 -4 -17
-10 -9 -14 -45 -12 -46 3 -3 28 4 53 17 67 12 12 18 12 34 2 27 -16 35 -15 20
3 -18 22 -57 18 -74 -7z"/>
<path d="M4062 164 c-16 -11 -22 -25 -22 -54 0 -33 4 -41 24 -46 27 -6 66 10
66 28 0 6 -9 3 -21 -8 -22 -20 -51 -11 -57 20 -3 13 5 16 42 16 38 0 46 3 46
18 0 40 -39 53 -78 26z m56 -6 c20 -20 14 -28 -23 -28 -19 0 -35 4 -35 8 0 12
22 32 35 32 6 0 16 -5 23 -12z"/>
<path d="M4202 168 c-19 -19 -14 -36 16 -50 15 -7 27 -20 27 -28 0 -21 -44
-25 -51 -6 -7 17 -24 22 -24 6 0 -16 41 -32 66 -26 33 9 33 49 -1 64 -14 6
-25 18 -25 27 0 18 31 20 48 3 8 -8 12 -8 12 -1 0 22 -49 30 -68 11z"/>
</g>
</svg>
